name C:\Users\u0101727\Documents\MyRepositories\upper-imu-dc\OpenSim\subject0\MA\MA_Splines\angle_in_n6_dof6_2.mot
datacolumns 7
datarows 33
range 225.01000000 225.33000000
endheader 
time	clav_prot	clav_elev	scapula_abduction	scapula_elevation	scapula_upward_rot	scapula_winging	
        225.01000000	        -49.02793530	         -7.65248351	        -27.66618321	         -1.85741863	         85.49388449	         -7.41021064	
        225.02000000	        -42.60353533	         -7.65248351	        -27.66618321	         -1.85741863	         85.49388449	         -7.41021064	
        225.03000000	        -36.17913537	         -7.65248351	        -27.66618321	         -1.85741863	         85.49388449	         -7.41021064	
        225.04000000	        -29.75473540	         -7.65248351	        -27.66618321	         -1.85741863	         85.49388449	         -7.41021064	
        225.05000000	        -23.33033544	         -7.65248351	        -27.66618321	         -1.85741863	         85.49388449	         -7.41021064	
        225.06000000	        -16.90593547	         -7.65248351	        -27.66618321	         -1.85741863	         85.49388449	         -7.41021064	
        225.07000000	        -49.02793530	         -2.74924671	        -27.66618321	         -1.85741863	         85.49388449	         -7.41021064	
        225.08000000	        -42.60353533	         -2.74924671	        -27.66618321	         -1.85741863	         85.49388449	         -7.41021064	
        225.09000000	        -36.17913537	         -2.74924671	        -27.66618321	         -1.85741863	         85.49388449	         -7.41021064	
        225.10000000	        -29.75473540	         -2.74924671	        -27.66618321	         -1.85741863	         85.49388449	         -7.41021064	
        225.11000000	        -23.33033544	         -2.74924671	        -27.66618321	         -1.85741863	         85.49388449	         -7.41021064	
        225.12000000	        -16.90593547	         -2.74924671	        -27.66618321	         -1.85741863	         85.49388449	         -7.41021064	
        225.13000000	        -49.02793530	          2.15399008	        -27.66618321	         -1.85741863	         85.49388449	         -7.41021064	
        225.14000000	        -42.60353533	          2.15399008	        -27.66618321	         -1.85741863	         85.49388449	         -7.41021064	
        225.15000000	        -36.17913537	          2.15399008	        -27.66618321	         -1.85741863	         85.49388449	         -7.41021064	
        225.16000000	        -29.75473540	          2.15399008	        -27.66618321	         -1.85741863	         85.49388449	         -7.41021064	
        225.17000000	        -23.33033544	          2.15399008	        -27.66618321	         -1.85741863	         85.49388449	         -7.41021064	
        225.18000000	        -16.90593547	          2.15399008	        -27.66618321	         -1.85741863	         85.49388449	         -7.41021064	
        225.19000000	        -49.02793530	          7.05722688	        -27.66618321	         -1.85741863	         85.49388449	         -7.41021064	
        225.20000000	        -42.60353533	          7.05722688	        -27.66618321	         -1.85741863	         85.49388449	         -7.41021064	
        225.21000000	        -36.17913537	          7.05722688	        -27.66618321	         -1.85741863	         85.49388449	         -7.41021064	
        225.22000000	        -29.75473540	          7.05722688	        -27.66618321	         -1.85741863	         85.49388449	         -7.41021064	
        225.23000000	        -23.33033544	          7.05722688	        -27.66618321	         -1.85741863	         85.49388449	         -7.41021064	
        225.24000000	        -16.90593547	          7.05722688	        -27.66618321	         -1.85741863	         85.49388449	         -7.41021064	
        225.25000000	        -49.02793530	         11.96046367	        -27.66618321	         -1.85741863	         85.49388449	         -7.41021064	
        225.26000000	        -42.60353533	         11.96046367	        -27.66618321	         -1.85741863	         85.49388449	         -7.41021064	
        225.27000000	        -36.17913537	         11.96046367	        -27.66618321	         -1.85741863	         85.49388449	         -7.41021064	
        225.28000000	        -29.75473540	         11.96046367	        -27.66618321	         -1.85741863	         85.49388449	         -7.41021064	
        225.29000000	        -23.33033544	         11.96046367	        -27.66618321	         -1.85741863	         85.49388449	         -7.41021064	
        225.30000000	        -16.90593547	         11.96046367	        -27.66618321	         -1.85741863	         85.49388449	         -7.41021064	
        225.31000000	        -49.02793530	         16.86370047	        -27.66618321	         -1.85741863	         85.49388449	         -7.41021064	
        225.32000000	        -42.60353533	         16.86370047	        -27.66618321	         -1.85741863	         85.49388449	         -7.41021064	
        225.33000000	        -36.17913537	         16.86370047	        -27.66618321	         -1.85741863	         85.49388449	         -7.41021064	
